<svg width="16" height="16" viewBox="0 0 16 16" fill="none" xmlns="http://www.w3.org/2000/svg">
<path d="M15.3641 7.21683C15.3641 7.32895 15.3276 7.39976 15.3046 7.42696L10.1971 12.0702C10.1938 12.0455 10.1919 12.0183 10.1919 11.9885V9.36407V8.76907H9.59686C6.0326 8.76907 2.9126 10.7199 1.06623 13.6514C1.02959 13.7043 0.986677 13.7307 0.939751 13.7443C0.885056 13.76 0.817618 13.7593 0.753631 13.7386C0.688481 13.7175 0.654239 13.6852 0.642268 13.6681L0.641638 13.6672C0.636825 13.6605 0.630402 13.6514 0.636461 13.619C0.869977 12.5304 1.1736 11.4815 1.69082 10.521L1.69654 10.5103L1.70183 10.4995C3.12478 7.57868 6.11197 5.426 9.59686 5.426H10.1919V4.831V2.44518C10.1919 2.41537 10.1938 2.38811 10.1971 2.36348L15.3046 7.0067C15.3276 7.0339 15.3641 7.10471 15.3641 7.21683Z" stroke="#6D6D6D" stroke-width="1.19"/>
</svg>
